<?xml version="1.0" standalone="no"?><!DOCTYPE svg PUBLIC "-//W3C//DTD SVG 1.1//EN" "http://www.w3.org/Graphics/SVG/1.1/DTD/svg11.dtd"><svg t="1739780140911" class="icon" viewBox="0 0 1024 1024" version="1.1" xmlns="http://www.w3.org/2000/svg" p-id="24261" xmlns:xlink="http://www.w3.org/1999/xlink" width="200" height="200"><path d="M397.12 128a85.333333 85.333333 0 0 1 85.333333 85.333333v183.786667a85.333333 85.333333 0 0 1-85.333333 85.333333H213.333333a85.333333 85.333333 0 0 1-85.333333-85.333333V213.333333a85.333333 85.333333 0 0 1 85.333333-85.333333h183.786667z m0 64H213.333333a21.333333 21.333333 0 0 0-21.333333 21.333333v183.786667a21.333333 21.333333 0 0 0 21.333333 21.333333h183.786667a21.333333 21.333333 0 0 0 21.333333-21.333333V213.333333a21.333333 21.333333 0 0 0-21.333333-21.333333zM909.077333 244.906667a85.333333 85.333333 0 0 1 0 120.661333l-129.962666 129.962667a85.333333 85.333333 0 0 1-120.682667 0l-129.962667-129.962667a85.333333 85.333333 0 0 1 0-120.682667l129.962667-129.962666a85.333333 85.333333 0 0 1 120.682667 0l129.962666 129.962666zM863.786667 290.133333L733.866667 160.213333a21.333333 21.333333 0 0 0-30.165334 0L573.717333 290.133333a21.333333 21.333333 0 0 0 0 30.165334l129.962667 129.962666a21.333333 21.333333 0 0 0 30.165333 0l129.962667-129.962666a21.333333 21.333333 0 0 0 0-30.165334zM397.12 541.546667a85.333333 85.333333 0 0 1 85.333333 85.333333V810.666667a85.333333 85.333333 0 0 1-85.333333 85.333333H213.333333a85.333333 85.333333 0 0 1-85.333333-85.333333v-183.786667a85.333333 85.333333 0 0 1 85.333333-85.333333h183.786667z m0 64H213.333333a21.333333 21.333333 0 0 0-21.333333 21.333333V810.666667a21.333333 21.333333 0 0 0 21.333333 21.333333h183.786667a21.333333 21.333333 0 0 0 21.333333-21.333333v-183.786667a21.333333 21.333333 0 0 0-21.333333-21.333333zM810.666667 541.546667a85.333333 85.333333 0 0 1 85.333333 85.333333V810.666667a85.333333 85.333333 0 0 1-85.333333 85.333333h-183.786667a85.333333 85.333333 0 0 1-85.333333-85.333333v-183.786667a85.333333 85.333333 0 0 1 85.333333-85.333333H810.666667z m0 64h-183.786667a21.333333 21.333333 0 0 0-21.333333 21.333333V810.666667a21.333333 21.333333 0 0 0 21.333333 21.333333H810.666667a21.333333 21.333333 0 0 0 21.333333-21.333333v-183.786667a21.333333 21.333333 0 0 0-21.333333-21.333333z" p-id="24262"></path></svg>