<?xml version="1.0" standalone="no"?><!DOCTYPE svg PUBLIC "-//W3C//DTD SVG 1.1//EN" "http://www.w3.org/Graphics/SVG/1.1/DTD/svg11.dtd"><svg t="1739779812775" class="icon" viewBox="0 0 1024 1024" version="1.1" xmlns="http://www.w3.org/2000/svg" p-id="2190" xmlns:xlink="http://www.w3.org/1999/xlink" width="200" height="200"><path d="M876 840c19.882 0 36 16.118 36 36s-16.118 36-36 36H148c-19.882 0-36-16.118-36-36s16.118-36 36-36h728z m0-243c19.882 0 36 16.118 36 36s-16.118 36-36 36H440c-19.882 0-36-16.118-36-36s16.118-36 36-36h436zM320.752 363.41a8 8 0 0 1 8 8v281.18a8 8 0 0 1-12.603 6.544l-199.848-140.59a8 8 0 0 1 0-13.087l199.848-140.59a8 8 0 0 1 4.603-1.458zM876 355c19.882 0 36 16.118 36 36s-16.118 36-36 36H440c-19.882 0-36-16.118-36-36s16.118-36 36-36h436z m0-243c19.882 0 36 16.118 36 36s-16.118 36-36 36H148c-19.882 0-36-16.118-36-36s16.118-36 36-36h728z" fill="#333333" p-id="2191"></path></svg>