<?xml version="1.0" standalone="no"?><!DOCTYPE svg PUBLIC "-//W3C//DTD SVG 1.1//EN" "http://www.w3.org/Graphics/SVG/1.1/DTD/svg11.dtd"><svg t="1739860987979" class="icon" viewBox="0 0 1024 1024" version="1.1" xmlns="http://www.w3.org/2000/svg" p-id="5567" xmlns:xlink="http://www.w3.org/1999/xlink" width="200" height="200"><path d="M701.239216 914.773333c-8.934902 0-19.174902-3.011765-28.109804-7.429019L480.778039 811.168627l-194.058039 96.175687c-19.174902 10.440784-44.373333 8.934902-62.243137-4.417255-17.769412-13.251765-28.109804-37.044706-23.692549-59.231373L240.840784 636.486275 88.345098 494.431373c-16.363922-16.263529-22.186667-41.562353-16.363922-62.243138 7.42902-22.186667 25.198431-38.550588 48.790589-41.361568l211.727059-38.550589 94.870588-192.552156c10.440784-20.680784 31.121569-34.032941 53.308235-34.032942s44.373333 13.251765 53.308235 34.032942l94.669804 192.451764 211.727059 37.044706c22.186667 3.011765 41.361569 19.174902 47.385098 41.361569 7.42902 22.186667 1.505882 45.879216-14.757647 62.243137l-152.596078 143.761569L758.964706 843.796078c4.417255 23.692549-5.923137 45.879216-23.692549 59.231373-8.734118 7.42902-20.680784 11.745882-34.032941 11.745882z m0 0" fill="#F5E13F" p-id="5568"></path></svg>